<svg width="1440" height="900" viewBox="0 0 1440 900" fill="none" xmlns="http://www.w3.org/2000/svg">
<g clip-path="url(#clip0)">
<rect width="1440" height="900" fill="white"/>
<rect x="1063" y="357.488" width="508" height="546.512" fill="#E6F2FC"/>
<rect x="1332.3" y="384.814" width="61.2048" height="18.2171" fill="white"/>
<rect x="1332.3" y="421.248" width="61.2048" height="18.2171" fill="white"/>
<rect x="1332.3" y="457.682" width="61.2048" height="18.2171" fill="white"/>
<rect x="1332.3" y="494.116" width="61.2048" height="18.2171" fill="white"/>
<rect x="1332.3" y="530.55" width="61.2048" height="18.2171" fill="white"/>
<rect x="1332.3" y="566.984" width="61.2048" height="18.2171" fill="white"/>
<rect x="1332.3" y="603.419" width="61.2048" height="18.2171" fill="white"/>
<rect x="1332.3" y="639.853" width="61.2048" height="18.2171" fill="white"/>
<rect x="1332.3" y="676.287" width="61.2048" height="18.2171" fill="white"/>
<rect x="1332.3" y="712.721" width="61.2048" height="18.2171" fill="white"/>
<rect x="1332.3" y="749.155" width="61.2048" height="18.2171" fill="white"/>
<rect x="1332.3" y="785.589" width="61.2048" height="18.2171" fill="white"/>
<rect x="1332.3" y="822.023" width="61.2048" height="18.2171" fill="white"/>
<rect x="1332.3" y="858.458" width="61.2048" height="18.2171" fill="white"/>
<rect x="1102.78" y="384.814" width="61.2048" height="18.2171" fill="white"/>
<rect x="1102.78" y="421.248" width="61.2048" height="18.2171" fill="white"/>
<rect x="1102.78" y="457.682" width="61.2048" height="18.2171" fill="white"/>
<rect x="1102.78" y="494.116" width="61.2048" height="18.2171" fill="white"/>
<rect x="1102.78" y="530.55" width="61.2048" height="18.2171" fill="white"/>
<rect x="1102.78" y="566.984" width="61.2048" height="18.2171" fill="white"/>
<rect x="1102.78" y="603.419" width="61.2048" height="18.2171" fill="white"/>
<rect x="1102.78" y="639.853" width="61.2048" height="18.2171" fill="white"/>
<rect x="1102.78" y="676.287" width="61.2048" height="18.2171" fill="white"/>
<rect x="1102.78" y="712.721" width="61.2048" height="18.2171" fill="white"/>
<rect x="1102.78" y="749.155" width="61.2048" height="18.2171" fill="white"/>
<rect x="1102.78" y="785.589" width="61.2048" height="18.2171" fill="white"/>
<rect x="1102.78" y="822.023" width="61.2048" height="18.2171" fill="white"/>
<rect x="1102.78" y="858.458" width="61.2048" height="18.2171" fill="white"/>
<rect x="1240.49" y="384.814" width="61.2048" height="18.2171" fill="white"/>
<rect x="1240.49" y="421.248" width="61.2048" height="18.2171" fill="white"/>
<rect x="1240.49" y="457.682" width="61.2048" height="18.2171" fill="white"/>
<rect x="1240.49" y="494.116" width="61.2048" height="18.2171" fill="white"/>
<rect x="1240.49" y="530.55" width="61.2048" height="18.2171" fill="white"/>
<rect x="1240.49" y="566.984" width="61.2048" height="18.2171" fill="white"/>
<rect x="1240.49" y="603.419" width="61.2048" height="18.2171" fill="white"/>
<rect x="1240.49" y="639.853" width="61.2048" height="18.2171" fill="white"/>
<rect x="1240.49" y="676.287" width="61.2048" height="18.2171" fill="white"/>
<rect x="1240.49" y="712.721" width="61.2048" height="18.2171" fill="white"/>
<rect x="1240.49" y="749.155" width="61.2048" height="18.2171" fill="white"/>
<rect x="1240.49" y="785.589" width="61.2048" height="18.2171" fill="white"/>
<rect x="1240.49" y="822.023" width="61.2048" height="18.2171" fill="white"/>
<rect x="1240.49" y="858.458" width="61.2048" height="18.2171" fill="white"/>
<rect x="1271.1" y="199" width="91.8072" height="54.6512" fill="#E6F2FC"/>
<rect x="1209.89" y="253.651" width="214.217" height="54.6512" fill="#E6F2FC"/>
<rect x="1163.99" y="308.302" width="306.024" height="54.6512" fill="#E6F2FC"/>
<g filter="url(#filter0_d)">
<circle cx="237" cy="511" r="175" fill="#CDF3F8"/>
</g>
<g filter="url(#filter1_d)">
<circle cx="422" cy="-84" r="175" fill="#E6F2FC"/>
</g>
<g filter="url(#filter2_d)">
<circle cx="859" cy="110" r="200" fill="#E6F2FC"/>
</g>
<g filter="url(#filter3_d)">
<circle cx="1150" cy="747" r="175" fill="#E6F2FC"/>
</g>
<g filter="url(#filter4_d)">
<circle cx="66.5" cy="331.5" r="26.5" fill="#E6F2FC"/>
</g>
<g filter="url(#filter5_d)">
<circle cx="148.5" cy="162.5" r="26.5" fill="#FBF4E4"/>
</g>
<g filter="url(#filter6_d)">
<circle cx="467" cy="189" r="40" fill="#FED5DE"/>
</g>
<g filter="url(#filter7_d)">
<circle cx="441" cy="819" r="100" fill="#CDF3F8"/>
</g>
<g filter="url(#filter8_d)">
<circle cx="210.5" cy="-0.5" r="107.5" fill="#FED5DE"/>
</g>
<g filter="url(#filter9_d)">
<circle cx="679" cy="424" r="40" fill="#FED5DE"/>
</g>
<g filter="url(#filter10_d)">
<circle cx="1099" cy="126" r="65" fill="#FED5DE"/>
</g>
<g filter="url(#filter11_d)">
<ellipse cx="1449.5" cy="836.5" rx="96.5" ry="95.5" fill="#FED5DE"/>
</g>
<g filter="url(#filter12_d)">
<circle cx="1380" cy="168" r="125" fill="#FED5DE"/>
</g>
<g filter="url(#filter13_d)">
<circle cx="1006" cy="640" r="125" fill="#FED5DE"/>
</g>
<g filter="url(#filter14_d)">
<circle cx="507" cy="719" r="25" fill="#FED5DE"/>
</g>
<g filter="url(#filter15_d)">
<circle cx="261" cy="418" r="50" fill="#FED5DE"/>
</g>
<g filter="url(#filter16_d)">
<circle cx="1400.5" cy="292.5" r="26.5" fill="#FBF4E4"/>
</g>
<g filter="url(#filter17_d)">
<circle cx="593" cy="607" r="35" fill="#FBF4E4"/>
</g>
<g filter="url(#filter18_d)">
<circle cx="1379" cy="560" r="70" fill="#FBF4E4"/>
</g>
<g filter="url(#filter19_d)">
<circle cx="682" cy="233" r="50" fill="#FBF4E4"/>
</g>
<g filter="url(#filter20_d)">
<circle cx="903" cy="511" r="15" fill="#FBF4E4"/>
</g>
<g filter="url(#filter21_d)">
<circle cx="427" cy="426" r="15" fill="#FBF4E4"/>
</g>
<g filter="url(#filter22_d)">
<ellipse cx="865.5" cy="795" rx="87.5" ry="83" fill="#FBF4E4"/>
</g>
<g filter="url(#filter23_d)">
<ellipse cx="-25.5" cy="416.5" rx="118.5" ry="119.5" fill="#FBF4E4"/>
</g>
<g filter="url(#filter24_d)">
<circle cx="310.5" cy="253.5" r="13.5" fill="#E6F2FC"/>
</g>
<g filter="url(#filter25_d)">
<circle cx="511.5" cy="353.5" r="26.5" fill="#E6F2FC"/>
</g>
<g filter="url(#filter26_d)">
<circle cx="562" cy="501" r="30" fill="#E6F2FC"/>
</g>
<g filter="url(#filter27_d)">
<circle cx="1185.5" cy="325.5" r="26.5" fill="#E6F2FC"/>
</g>
<g filter="url(#filter28_d)">
<circle cx="1329" cy="442" r="45" fill="#CDF3F8"/>
<circle cx="1329" cy="442" r="44.5" stroke="#CDF3F8"/>
</g>
<g filter="url(#filter29_d)">
<circle cx="-25" cy="297" r="60" fill="#CDF3F8"/>
</g>
<g filter="url(#filter30_d)">
<ellipse cx="1378" cy="49.5" rx="69" ry="70.5" fill="#CDF3F8"/>
</g>
<g filter="url(#filter31_d)">
<circle cx="1210" cy="30" r="10" fill="#CDF3F8"/>
</g>
<g filter="url(#filter32_d)">
<circle cx="1392.5" cy="613.5" r="26.5" fill="#E6F2FC"/>
</g>
<g filter="url(#filter33_d)">
<circle cx="124" cy="747" r="175" fill="#E6F2FC"/>
</g>
<rect x="306" y="503.488" width="508" height="546.512" fill="#E6F2FC"/>
<rect x="575.301" y="530.814" width="61.2048" height="18.2171" fill="white"/>
<rect x="575.301" y="567.248" width="61.2048" height="18.2171" fill="white"/>
<rect x="575.301" y="603.682" width="61.2048" height="18.2171" fill="white"/>
<rect x="575.301" y="640.116" width="61.2048" height="18.2171" fill="white"/>
<rect x="575.301" y="676.55" width="61.2048" height="18.2171" fill="white"/>
<rect x="575.301" y="712.984" width="61.2048" height="18.2171" fill="white"/>
<rect x="575.301" y="749.419" width="61.2048" height="18.2171" fill="white"/>
<rect x="575.301" y="785.853" width="61.2048" height="18.2171" fill="white"/>
<rect x="575.301" y="822.287" width="61.2048" height="18.2171" fill="white"/>
<rect x="575.301" y="858.721" width="61.2048" height="18.2171" fill="white"/>
<rect x="575.301" y="895.155" width="61.2048" height="18.2171" fill="white"/>
<rect x="713.012" y="530.814" width="61.2048" height="18.2171" fill="white"/>
<rect x="713.012" y="567.248" width="61.2048" height="18.2171" fill="white"/>
<rect x="713.012" y="603.682" width="61.2048" height="18.2171" fill="white"/>
<rect x="713.012" y="640.116" width="61.2048" height="18.2171" fill="white"/>
<rect x="713.012" y="676.55" width="61.2048" height="18.2171" fill="white"/>
<rect x="713.012" y="712.984" width="61.2048" height="18.2171" fill="white"/>
<rect x="713.012" y="749.419" width="61.2048" height="18.2171" fill="white"/>
<rect x="713.012" y="785.853" width="61.2048" height="18.2171" fill="white"/>
<rect x="713.012" y="822.287" width="61.2048" height="18.2171" fill="white"/>
<rect x="713.012" y="858.721" width="61.2048" height="18.2171" fill="white"/>
<rect x="713.012" y="895.155" width="61.2048" height="18.2171" fill="white"/>
<rect x="345.783" y="530.814" width="61.2048" height="18.2171" fill="white"/>
<rect x="345.783" y="567.248" width="61.2048" height="18.2171" fill="white"/>
<rect x="345.783" y="603.682" width="61.2048" height="18.2171" fill="white"/>
<rect x="345.783" y="640.116" width="61.2048" height="18.2171" fill="white"/>
<rect x="345.783" y="676.55" width="61.2048" height="18.2171" fill="white"/>
<rect x="345.783" y="712.984" width="61.2048" height="18.2171" fill="white"/>
<rect x="345.783" y="749.419" width="61.2048" height="18.2171" fill="white"/>
<rect x="345.783" y="785.853" width="61.2048" height="18.2171" fill="white"/>
<rect x="345.783" y="822.287" width="61.2048" height="18.2171" fill="white"/>
<rect x="345.783" y="858.721" width="61.2048" height="18.2171" fill="white"/>
<rect x="345.783" y="895.155" width="61.2048" height="18.2171" fill="white"/>
<rect x="483.494" y="530.814" width="61.2048" height="18.2171" fill="white"/>
<rect x="483.494" y="567.248" width="61.2048" height="18.2171" fill="white"/>
<rect x="483.494" y="603.682" width="61.2048" height="18.2171" fill="white"/>
<rect x="483.494" y="640.116" width="61.2048" height="18.2171" fill="white"/>
<rect x="483.494" y="676.55" width="61.2048" height="18.2171" fill="white"/>
<rect x="483.494" y="712.984" width="61.2048" height="18.2171" fill="white"/>
<rect x="483.494" y="749.419" width="61.2048" height="18.2171" fill="white"/>
<rect x="483.494" y="785.853" width="61.2048" height="18.2171" fill="white"/>
<rect x="483.494" y="822.287" width="61.2048" height="18.2171" fill="white"/>
<rect x="483.494" y="858.721" width="61.2048" height="18.2171" fill="white"/>
<rect x="483.494" y="895.155" width="61.2048" height="18.2171" fill="white"/>
<rect x="514.096" y="345" width="91.8072" height="54.6512" fill="#E6F2FC"/>
<rect x="452.892" y="399.651" width="214.217" height="54.6512" fill="#E6F2FC"/>
<rect x="406.988" y="454.302" width="306.024" height="54.6512" fill="#E6F2FC"/>
<rect x="32" y="730.085" width="280" height="358.915" fill="#E6F2FC"/>
<rect x="180.434" y="748.031" width="33.7349" height="11.9638" fill="white"/>
<rect x="180.434" y="771.959" width="33.7349" height="11.9638" fill="white"/>
<rect x="180.434" y="795.886" width="33.7349" height="11.9638" fill="white"/>
<rect x="180.434" y="819.814" width="33.7349" height="11.9638" fill="white"/>
<rect x="180.434" y="843.742" width="33.7349" height="11.9638" fill="white"/>
<rect x="180.434" y="867.669" width="33.7349" height="11.9638" fill="white"/>
<rect x="180.434" y="891.597" width="33.7349" height="11.9638" fill="white"/>
<rect x="256.337" y="748.031" width="33.7349" height="11.9638" fill="white"/>
<rect x="256.337" y="771.959" width="33.7349" height="11.9638" fill="white"/>
<rect x="256.337" y="795.886" width="33.7349" height="11.9638" fill="white"/>
<rect x="256.337" y="819.814" width="33.7349" height="11.9638" fill="white"/>
<rect x="256.337" y="843.742" width="33.7349" height="11.9638" fill="white"/>
<rect x="256.337" y="867.669" width="33.7349" height="11.9638" fill="white"/>
<rect x="256.337" y="891.597" width="33.7349" height="11.9638" fill="white"/>
<rect x="53.9277" y="748.031" width="33.7349" height="11.9638" fill="white"/>
<rect x="53.9277" y="771.959" width="33.7349" height="11.9638" fill="white"/>
<rect x="53.9277" y="795.886" width="33.7349" height="11.9638" fill="white"/>
<rect x="53.9277" y="819.814" width="33.7349" height="11.9638" fill="white"/>
<rect x="53.9277" y="843.742" width="33.7349" height="11.9638" fill="white"/>
<rect x="53.9277" y="867.669" width="33.7349" height="11.9638" fill="white"/>
<rect x="53.9277" y="891.597" width="33.7349" height="11.9638" fill="white"/>
<rect x="129.832" y="748.031" width="33.7349" height="11.9638" fill="white"/>
<rect x="129.832" y="771.959" width="33.7349" height="11.9638" fill="white"/>
<rect x="129.832" y="795.886" width="33.7349" height="11.9638" fill="white"/>
<rect x="129.832" y="819.814" width="33.7349" height="11.9638" fill="white"/>
<rect x="129.832" y="843.742" width="33.7349" height="11.9638" fill="white"/>
<rect x="129.832" y="867.669" width="33.7349" height="11.9638" fill="white"/>
<rect x="129.832" y="891.597" width="33.7349" height="11.9638" fill="white"/>
<rect x="146.699" y="626" width="50.6024" height="35.8915" fill="#E6F2FC"/>
<rect x="112.964" y="661.891" width="118.072" height="35.8915" fill="#E6F2FC"/>
<rect x="87.6626" y="697.783" width="168.675" height="35.8915" fill="#E6F2FC"/>
<path d="M191.527 266.733C195.289 259.697 209.743 287.466 209.743 287.466C209.743 287.466 223.175 265.695 231.392 267.017" stroke="#D3D7D9" stroke-width="5"/>
<path d="M1060.16 427.733C1063.92 420.697 1078.38 448.466 1078.38 448.466C1078.38 448.466 1091.81 426.695 1100.02 428.017" stroke="#D3D7D9" stroke-width="5"/>
<path d="M249.014 229.04C251.447 225.533 256.434 242.026 256.434 242.026C256.434 242.026 264.857 231.337 268.844 232.804" stroke="#D3D7D9" stroke-width="5"/>
<path d="M1117.65 390.04C1120.08 386.533 1125.07 403.026 1125.07 403.026C1125.07 403.026 1133.49 392.337 1137.48 393.804" stroke="#D3D7D9" stroke-width="5"/>
<path d="M281.036 305.427C285.648 298.635 295.609 330.22 295.609 330.22C295.609 330.22 311.603 309.496 319.314 312.228" stroke="#D3D7D9" stroke-width="5"/>
<path d="M1090.04 310.427C1094.65 303.635 1104.61 335.22 1104.61 335.22C1104.61 335.22 1120.6 314.496 1128.31 317.228" stroke="#D3D7D9" stroke-width="5"/>
<path fill-rule="evenodd" clip-rule="evenodd" d="M1094.97 218C1101.35 218 1107.22 216.083 1111.84 212.88C1115.72 216.083 1120.65 218 1126.01 218C1131.67 218 1136.84 215.871 1140.81 212.35C1146.45 215.871 1153.79 218 1161.82 218C1179.59 218 1194 207.57 1194 194.705C1194 190.633 1192.56 186.805 1190.02 183.474L1169.51 191.973L1186.34 179.615C1181.25 175.284 1174 172.319 1165.8 171.586C1165.37 166.739 1163.5 162.321 1160.62 158.792L1138.98 173.235L1156.14 154.588C1152.48 151.975 1148.03 150.443 1143.24 150.443C1137.99 150.443 1133.16 152.277 1129.32 155.355C1127.5 144.366 1118.19 136 1106.98 136C1094.46 136 1084.32 146.43 1084.32 159.295C1084.32 164.057 1085.71 168.484 1088.09 172.173C1088.03 172.187 1087.97 172.201 1087.91 172.214L1102.68 183.707L1081.81 174.364C1073.57 178.35 1068 185.965 1068 194.705C1068 207.57 1080.07 218 1094.97 218Z" fill="url(#paint0_linear)"/>
<path fill-rule="evenodd" clip-rule="evenodd" d="M1265.29 264C1277.91 264 1289.5 260.401 1298.63 254.384C1306.3 260.401 1316.04 264 1326.65 264C1337.82 264 1348.04 260.002 1355.89 253.39C1367.03 260.002 1381.54 264 1397.41 264C1432.53 264 1461 244.413 1461 220.25C1461 212.603 1458.15 205.414 1453.14 199.159L1412.6 215.119L1445.86 191.911C1435.79 183.777 1421.48 178.208 1405.28 176.832C1404.43 167.729 1400.72 159.432 1395.04 152.804L1352.27 179.93L1386.19 144.91C1378.95 140.001 1370.16 137.125 1360.68 137.125C1350.31 137.125 1340.77 140.569 1333.17 146.349C1329.58 125.711 1311.18 110 1289.03 110C1264.29 110 1244.24 129.588 1244.24 153.75C1244.24 162.692 1246.99 171.007 1251.7 177.935C1251.59 177.961 1251.47 177.986 1251.35 178.013L1280.54 199.595L1239.3 182.049C1223.01 189.535 1212 203.837 1212 220.25C1212 244.413 1235.86 264 1265.29 264Z" fill="url(#paint1_linear)"/>
<path fill-rule="evenodd" clip-rule="evenodd" d="M386.978 300C391.235 300 395.146 298.644 398.225 296.379C400.813 298.644 404.099 300 407.676 300C411.446 300 414.893 298.494 417.54 296.004C421.298 298.494 426.194 300 431.547 300C443.395 300 453 292.623 453 283.523C453 280.643 452.038 277.935 450.347 275.579L436.672 281.59L447.892 272.85C444.497 269.786 439.668 267.689 434.203 267.17C433.915 263.742 432.663 260.617 430.747 258.121L416.319 268.337L427.763 255.148C425.321 253.299 422.356 252.216 419.158 252.216C415.66 252.216 412.439 253.513 409.878 255.69C408.664 247.917 402.458 242 394.986 242C386.642 242 379.878 249.377 379.878 258.477C379.878 261.845 380.804 264.977 382.394 267.586C382.354 267.596 382.315 267.605 382.275 267.615L392.123 275.744L378.209 269.135C372.714 271.955 369 277.341 369 283.523C369 292.623 377.049 300 386.978 300Z" fill="url(#paint2_linear)"/>
<path fill-rule="evenodd" clip-rule="evenodd" d="M155.982 430C159.529 430 162.788 428.785 165.354 426.753C167.511 428.785 170.25 430 173.23 430C176.372 430 179.244 428.65 181.45 426.417C184.582 428.65 188.661 430 193.122 430C202.996 430 211 423.386 211 415.227C211 412.645 210.198 410.218 208.789 408.105L197.393 413.495L206.743 405.658C203.914 402.912 199.89 401.031 195.335 400.567C195.095 397.493 194.053 394.691 192.456 392.453L180.432 401.613L189.969 389.788C187.934 388.13 185.463 387.159 182.799 387.159C179.883 387.159 177.199 388.322 175.065 390.274C174.053 383.305 168.882 378 162.655 378C155.701 378 150.065 384.614 150.065 392.773C150.065 395.792 150.837 398.6 152.162 400.939C152.129 400.948 152.095 400.956 152.062 400.965L160.269 408.253L148.674 402.328C144.095 404.856 141 409.685 141 415.227C141 423.386 147.708 430 155.982 430Z" fill="url(#paint3_linear)"/>
</g>
<defs>
<filter id="filter0_d" x="47" y="321" width="390" height="390" filterUnits="userSpaceOnUse" color-interpolation-filters="sRGB">
<feFlood flood-opacity="0" result="BackgroundImageFix"/>
<feColorMatrix in="SourceAlpha" type="matrix" values="0 0 0 0 0 0 0 0 0 0 0 0 0 0 0 0 0 0 127 0"/>
<feOffset dx="5" dy="5"/>
<feGaussianBlur stdDeviation="10"/>
<feColorMatrix type="matrix" values="0 0 0 0 0.603922 0 0 0 0 0.909804 0 0 0 0 0.94902 0 0 0 1 0"/>
<feBlend mode="normal" in2="BackgroundImageFix" result="effect1_dropShadow"/>
<feBlend mode="normal" in="SourceGraphic" in2="effect1_dropShadow" result="shape"/>
</filter>
<filter id="filter1_d" x="232" y="-274" width="390" height="390" filterUnits="userSpaceOnUse" color-interpolation-filters="sRGB">
<feFlood flood-opacity="0" result="BackgroundImageFix"/>
<feColorMatrix in="SourceAlpha" type="matrix" values="0 0 0 0 0 0 0 0 0 0 0 0 0 0 0 0 0 0 127 0"/>
<feOffset dx="5" dy="5"/>
<feGaussianBlur stdDeviation="10"/>
<feColorMatrix type="matrix" values="0 0 0 0 0.74902 0 0 0 0 0.878431 0 0 0 0 0.988235 0 0 0 1 0"/>
<feBlend mode="normal" in2="BackgroundImageFix" result="effect1_dropShadow"/>
<feBlend mode="normal" in="SourceGraphic" in2="effect1_dropShadow" result="shape"/>
</filter>
<filter id="filter2_d" x="644" y="-95" width="420" height="420" filterUnits="userSpaceOnUse" color-interpolation-filters="sRGB">
<feFlood flood-opacity="0" result="BackgroundImageFix"/>
<feColorMatrix in="SourceAlpha" type="matrix" values="0 0 0 0 0 0 0 0 0 0 0 0 0 0 0 0 0 0 127 0"/>
<feOffset dx="-5" dy="5"/>
<feGaussianBlur stdDeviation="5"/>
<feColorMatrix type="matrix" values="0 0 0 0 0.74902 0 0 0 0 0.878431 0 0 0 0 0.988235 0 0 0 1 0"/>
<feBlend mode="normal" in2="BackgroundImageFix" result="effect1_dropShadow"/>
<feBlend mode="normal" in="SourceGraphic" in2="effect1_dropShadow" result="shape"/>
</filter>
<filter id="filter3_d" x="960" y="557" width="390" height="390" filterUnits="userSpaceOnUse" color-interpolation-filters="sRGB">
<feFlood flood-opacity="0" result="BackgroundImageFix"/>
<feColorMatrix in="SourceAlpha" type="matrix" values="0 0 0 0 0 0 0 0 0 0 0 0 0 0 0 0 0 0 127 0"/>
<feOffset dx="5" dy="5"/>
<feGaussianBlur stdDeviation="10"/>
<feColorMatrix type="matrix" values="0 0 0 0 0.74902 0 0 0 0 0.878431 0 0 0 0 0.988235 0 0 0 1 0"/>
<feBlend mode="normal" in2="BackgroundImageFix" result="effect1_dropShadow"/>
<feBlend mode="normal" in="SourceGraphic" in2="effect1_dropShadow" result="shape"/>
</filter>
<filter id="filter4_d" x="25" y="290" width="93" height="93" filterUnits="userSpaceOnUse" color-interpolation-filters="sRGB">
<feFlood flood-opacity="0" result="BackgroundImageFix"/>
<feColorMatrix in="SourceAlpha" type="matrix" values="0 0 0 0 0 0 0 0 0 0 0 0 0 0 0 0 0 0 127 0"/>
<feOffset dx="5" dy="5"/>
<feGaussianBlur stdDeviation="10"/>
<feColorMatrix type="matrix" values="0 0 0 0 0.74902 0 0 0 0 0.878431 0 0 0 0 0.988235 0 0 0 1 0"/>
<feBlend mode="normal" in2="BackgroundImageFix" result="effect1_dropShadow"/>
<feBlend mode="normal" in="SourceGraphic" in2="effect1_dropShadow" result="shape"/>
</filter>
<filter id="filter5_d" x="117" y="131" width="73" height="73" filterUnits="userSpaceOnUse" color-interpolation-filters="sRGB">
<feFlood flood-opacity="0" result="BackgroundImageFix"/>
<feColorMatrix in="SourceAlpha" type="matrix" values="0 0 0 0 0 0 0 0 0 0 0 0 0 0 0 0 0 0 127 0"/>
<feOffset dx="5" dy="5"/>
<feGaussianBlur stdDeviation="5"/>
<feColorMatrix type="matrix" values="0 0 0 0 0.968627 0 0 0 0 0.917647 0 0 0 0 0.792157 0 0 0 1 0"/>
<feBlend mode="normal" in2="BackgroundImageFix" result="effect1_dropShadow"/>
<feBlend mode="normal" in="SourceGraphic" in2="effect1_dropShadow" result="shape"/>
</filter>
<filter id="filter6_d" x="422" y="144" width="100" height="100" filterUnits="userSpaceOnUse" color-interpolation-filters="sRGB">
<feFlood flood-opacity="0" result="BackgroundImageFix"/>
<feColorMatrix in="SourceAlpha" type="matrix" values="0 0 0 0 0 0 0 0 0 0 0 0 0 0 0 0 0 0 127 0"/>
<feOffset dx="5" dy="5"/>
<feGaussianBlur stdDeviation="5"/>
<feColorMatrix type="matrix" values="0 0 0 0 0.992157 0 0 0 0 0.721569 0 0 0 0 0.784314 0 0 0 1 0"/>
<feBlend mode="normal" in2="BackgroundImageFix" result="effect1_dropShadow"/>
<feBlend mode="normal" in="SourceGraphic" in2="effect1_dropShadow" result="shape"/>
</filter>
<filter id="filter7_d" x="316" y="704" width="240" height="240" filterUnits="userSpaceOnUse" color-interpolation-filters="sRGB">
<feFlood flood-opacity="0" result="BackgroundImageFix"/>
<feColorMatrix in="SourceAlpha" type="matrix" values="0 0 0 0 0 0 0 0 0 0 0 0 0 0 0 0 0 0 127 0"/>
<feOffset dx="-5" dy="5"/>
<feGaussianBlur stdDeviation="10"/>
<feColorMatrix type="matrix" values="0 0 0 0 0.603922 0 0 0 0 0.909804 0 0 0 0 0.94902 0 0 0 1 0"/>
<feBlend mode="normal" in2="BackgroundImageFix" result="effect1_dropShadow"/>
<feBlend mode="normal" in="SourceGraphic" in2="effect1_dropShadow" result="shape"/>
</filter>
<filter id="filter8_d" x="98" y="-113" width="235" height="235" filterUnits="userSpaceOnUse" color-interpolation-filters="sRGB">
<feFlood flood-opacity="0" result="BackgroundImageFix"/>
<feColorMatrix in="SourceAlpha" type="matrix" values="0 0 0 0 0 0 0 0 0 0 0 0 0 0 0 0 0 0 127 0"/>
<feOffset dx="5" dy="5"/>
<feGaussianBlur stdDeviation="5"/>
<feColorMatrix type="matrix" values="0 0 0 0 0.992157 0 0 0 0 0.721569 0 0 0 0 0.784314 0 0 0 1 0"/>
<feBlend mode="normal" in2="BackgroundImageFix" result="effect1_dropShadow"/>
<feBlend mode="normal" in="SourceGraphic" in2="effect1_dropShadow" result="shape"/>
</filter>
<filter id="filter9_d" x="634" y="379" width="100" height="100" filterUnits="userSpaceOnUse" color-interpolation-filters="sRGB">
<feFlood flood-opacity="0" result="BackgroundImageFix"/>
<feColorMatrix in="SourceAlpha" type="matrix" values="0 0 0 0 0 0 0 0 0 0 0 0 0 0 0 0 0 0 127 0"/>
<feOffset dx="5" dy="5"/>
<feGaussianBlur stdDeviation="5"/>
<feColorMatrix type="matrix" values="0 0 0 0 0.992157 0 0 0 0 0.721569 0 0 0 0 0.784314 0 0 0 1 0"/>
<feBlend mode="normal" in2="BackgroundImageFix" result="effect1_dropShadow"/>
<feBlend mode="normal" in="SourceGraphic" in2="effect1_dropShadow" result="shape"/>
</filter>
<filter id="filter10_d" x="1029" y="56" width="150" height="150" filterUnits="userSpaceOnUse" color-interpolation-filters="sRGB">
<feFlood flood-opacity="0" result="BackgroundImageFix"/>
<feColorMatrix in="SourceAlpha" type="matrix" values="0 0 0 0 0 0 0 0 0 0 0 0 0 0 0 0 0 0 127 0"/>
<feOffset dx="5" dy="5"/>
<feGaussianBlur stdDeviation="5"/>
<feColorMatrix type="matrix" values="0 0 0 0 0.992157 0 0 0 0 0.721569 0 0 0 0 0.784314 0 0 0 1 0"/>
<feBlend mode="normal" in2="BackgroundImageFix" result="effect1_dropShadow"/>
<feBlend mode="normal" in="SourceGraphic" in2="effect1_dropShadow" result="shape"/>
</filter>
<filter id="filter11_d" x="1338" y="736" width="213" height="211" filterUnits="userSpaceOnUse" color-interpolation-filters="sRGB">
<feFlood flood-opacity="0" result="BackgroundImageFix"/>
<feColorMatrix in="SourceAlpha" type="matrix" values="0 0 0 0 0 0 0 0 0 0 0 0 0 0 0 0 0 0 127 0"/>
<feOffset dx="-5" dy="5"/>
<feGaussianBlur stdDeviation="5"/>
<feColorMatrix type="matrix" values="0 0 0 0 0.992157 0 0 0 0 0.721569 0 0 0 0 0.784314 0 0 0 1 0"/>
<feBlend mode="normal" in2="BackgroundImageFix" result="effect1_dropShadow"/>
<feBlend mode="normal" in="SourceGraphic" in2="effect1_dropShadow" result="shape"/>
</filter>
<filter id="filter12_d" x="1240" y="38" width="270" height="270" filterUnits="userSpaceOnUse" color-interpolation-filters="sRGB">
<feFlood flood-opacity="0" result="BackgroundImageFix"/>
<feColorMatrix in="SourceAlpha" type="matrix" values="0 0 0 0 0 0 0 0 0 0 0 0 0 0 0 0 0 0 127 0"/>
<feOffset dx="-5" dy="5"/>
<feGaussianBlur stdDeviation="5"/>
<feColorMatrix type="matrix" values="0 0 0 0 0.992157 0 0 0 0 0.721569 0 0 0 0 0.784314 0 0 0 1 0"/>
<feBlend mode="normal" in2="BackgroundImageFix" result="effect1_dropShadow"/>
<feBlend mode="normal" in="SourceGraphic" in2="effect1_dropShadow" result="shape"/>
</filter>
<filter id="filter13_d" x="871" y="505" width="280" height="280" filterUnits="userSpaceOnUse" color-interpolation-filters="sRGB">
<feFlood flood-opacity="0" result="BackgroundImageFix"/>
<feColorMatrix in="SourceAlpha" type="matrix" values="0 0 0 0 0 0 0 0 0 0 0 0 0 0 0 0 0 0 127 0"/>
<feOffset dx="5" dy="5"/>
<feGaussianBlur stdDeviation="7.5"/>
<feColorMatrix type="matrix" values="0 0 0 0 0.992157 0 0 0 0 0.721569 0 0 0 0 0.784314 0 0 0 1 0"/>
<feBlend mode="normal" in2="BackgroundImageFix" result="effect1_dropShadow"/>
<feBlend mode="normal" in="SourceGraphic" in2="effect1_dropShadow" result="shape"/>
</filter>
<filter id="filter14_d" x="467" y="679" width="70" height="70" filterUnits="userSpaceOnUse" color-interpolation-filters="sRGB">
<feFlood flood-opacity="0" result="BackgroundImageFix"/>
<feColorMatrix in="SourceAlpha" type="matrix" values="0 0 0 0 0 0 0 0 0 0 0 0 0 0 0 0 0 0 127 0"/>
<feOffset dx="-5" dy="-5"/>
<feGaussianBlur stdDeviation="5"/>
<feColorMatrix type="matrix" values="0 0 0 0 0.992157 0 0 0 0 0.721569 0 0 0 0 0.784314 0 0 0 1 0"/>
<feBlend mode="normal" in2="BackgroundImageFix" result="effect1_dropShadow"/>
<feBlend mode="normal" in="SourceGraphic" in2="effect1_dropShadow" result="shape"/>
</filter>
<filter id="filter15_d" x="196" y="353" width="120" height="120" filterUnits="userSpaceOnUse" color-interpolation-filters="sRGB">
<feFlood flood-opacity="0" result="BackgroundImageFix"/>
<feColorMatrix in="SourceAlpha" type="matrix" values="0 0 0 0 0 0 0 0 0 0 0 0 0 0 0 0 0 0 127 0"/>
<feOffset dx="-5" dy="-5"/>
<feGaussianBlur stdDeviation="5"/>
<feColorMatrix type="matrix" values="0 0 0 0 0.992157 0 0 0 0 0.721569 0 0 0 0 0.784314 0 0 0 1 0"/>
<feBlend mode="normal" in2="BackgroundImageFix" result="effect1_dropShadow"/>
<feBlend mode="normal" in="SourceGraphic" in2="effect1_dropShadow" result="shape"/>
</filter>
<filter id="filter16_d" x="1359" y="261" width="73" height="73" filterUnits="userSpaceOnUse" color-interpolation-filters="sRGB">
<feFlood flood-opacity="0" result="BackgroundImageFix"/>
<feColorMatrix in="SourceAlpha" type="matrix" values="0 0 0 0 0 0 0 0 0 0 0 0 0 0 0 0 0 0 127 0"/>
<feOffset dx="-5" dy="5"/>
<feGaussianBlur stdDeviation="5"/>
<feColorMatrix type="matrix" values="0 0 0 0 0.968627 0 0 0 0 0.917647 0 0 0 0 0.792157 0 0 0 1 0"/>
<feBlend mode="normal" in2="BackgroundImageFix" result="effect1_dropShadow"/>
<feBlend mode="normal" in="SourceGraphic" in2="effect1_dropShadow" result="shape"/>
</filter>
<filter id="filter17_d" x="543" y="567" width="90" height="90" filterUnits="userSpaceOnUse" color-interpolation-filters="sRGB">
<feFlood flood-opacity="0" result="BackgroundImageFix"/>
<feColorMatrix in="SourceAlpha" type="matrix" values="0 0 0 0 0 0 0 0 0 0 0 0 0 0 0 0 0 0 127 0"/>
<feOffset dx="-5" dy="5"/>
<feGaussianBlur stdDeviation="5"/>
<feColorMatrix type="matrix" values="0 0 0 0 0.968627 0 0 0 0 0.917647 0 0 0 0 0.792157 0 0 0 1 0"/>
<feBlend mode="normal" in2="BackgroundImageFix" result="effect1_dropShadow"/>
<feBlend mode="normal" in="SourceGraphic" in2="effect1_dropShadow" result="shape"/>
</filter>
<filter id="filter18_d" x="1294" y="485" width="160" height="160" filterUnits="userSpaceOnUse" color-interpolation-filters="sRGB">
<feFlood flood-opacity="0" result="BackgroundImageFix"/>
<feColorMatrix in="SourceAlpha" type="matrix" values="0 0 0 0 0 0 0 0 0 0 0 0 0 0 0 0 0 0 127 0"/>
<feOffset dx="-5" dy="5"/>
<feGaussianBlur stdDeviation="5"/>
<feColorMatrix type="matrix" values="0 0 0 0 0.968627 0 0 0 0 0.917647 0 0 0 0 0.792157 0 0 0 1 0"/>
<feBlend mode="normal" in2="BackgroundImageFix" result="effect1_dropShadow"/>
<feBlend mode="normal" in="SourceGraphic" in2="effect1_dropShadow" result="shape"/>
</filter>
<filter id="filter19_d" x="617" y="178" width="120" height="120" filterUnits="userSpaceOnUse" color-interpolation-filters="sRGB">
<feFlood flood-opacity="0" result="BackgroundImageFix"/>
<feColorMatrix in="SourceAlpha" type="matrix" values="0 0 0 0 0 0 0 0 0 0 0 0 0 0 0 0 0 0 127 0"/>
<feOffset dx="-5" dy="5"/>
<feGaussianBlur stdDeviation="5"/>
<feColorMatrix type="matrix" values="0 0 0 0 0.968627 0 0 0 0 0.917647 0 0 0 0 0.792157 0 0 0 1 0"/>
<feBlend mode="normal" in2="BackgroundImageFix" result="effect1_dropShadow"/>
<feBlend mode="normal" in="SourceGraphic" in2="effect1_dropShadow" result="shape"/>
</filter>
<filter id="filter20_d" x="883" y="491" width="50" height="50" filterUnits="userSpaceOnUse" color-interpolation-filters="sRGB">
<feFlood flood-opacity="0" result="BackgroundImageFix"/>
<feColorMatrix in="SourceAlpha" type="matrix" values="0 0 0 0 0 0 0 0 0 0 0 0 0 0 0 0 0 0 127 0"/>
<feOffset dx="5" dy="5"/>
<feGaussianBlur stdDeviation="5"/>
<feColorMatrix type="matrix" values="0 0 0 0 0.968627 0 0 0 0 0.917647 0 0 0 0 0.792157 0 0 0 1 0"/>
<feBlend mode="normal" in2="BackgroundImageFix" result="effect1_dropShadow"/>
<feBlend mode="normal" in="SourceGraphic" in2="effect1_dropShadow" result="shape"/>
</filter>
<filter id="filter21_d" x="407" y="406" width="50" height="50" filterUnits="userSpaceOnUse" color-interpolation-filters="sRGB">
<feFlood flood-opacity="0" result="BackgroundImageFix"/>
<feColorMatrix in="SourceAlpha" type="matrix" values="0 0 0 0 0 0 0 0 0 0 0 0 0 0 0 0 0 0 127 0"/>
<feOffset dx="5" dy="5"/>
<feGaussianBlur stdDeviation="5"/>
<feColorMatrix type="matrix" values="0 0 0 0 0.968627 0 0 0 0 0.917647 0 0 0 0 0.792157 0 0 0 1 0"/>
<feBlend mode="normal" in2="BackgroundImageFix" result="effect1_dropShadow"/>
<feBlend mode="normal" in="SourceGraphic" in2="effect1_dropShadow" result="shape"/>
</filter>
<filter id="filter22_d" x="773" y="707" width="195" height="186" filterUnits="userSpaceOnUse" color-interpolation-filters="sRGB">
<feFlood flood-opacity="0" result="BackgroundImageFix"/>
<feColorMatrix in="SourceAlpha" type="matrix" values="0 0 0 0 0 0 0 0 0 0 0 0 0 0 0 0 0 0 127 0"/>
<feOffset dx="5" dy="5"/>
<feGaussianBlur stdDeviation="5"/>
<feColorMatrix type="matrix" values="0 0 0 0 0.968627 0 0 0 0 0.917647 0 0 0 0 0.792157 0 0 0 1 0"/>
<feBlend mode="normal" in2="BackgroundImageFix" result="effect1_dropShadow"/>
<feBlend mode="normal" in="SourceGraphic" in2="effect1_dropShadow" result="shape"/>
</filter>
<filter id="filter23_d" x="-149" y="292" width="257" height="259" filterUnits="userSpaceOnUse" color-interpolation-filters="sRGB">
<feFlood flood-opacity="0" result="BackgroundImageFix"/>
<feColorMatrix in="SourceAlpha" type="matrix" values="0 0 0 0 0 0 0 0 0 0 0 0 0 0 0 0 0 0 127 0"/>
<feOffset dx="5" dy="5"/>
<feGaussianBlur stdDeviation="5"/>
<feColorMatrix type="matrix" values="0 0 0 0 0.968627 0 0 0 0 0.917647 0 0 0 0 0.792157 0 0 0 1 0"/>
<feBlend mode="normal" in2="BackgroundImageFix" result="effect1_dropShadow"/>
<feBlend mode="normal" in="SourceGraphic" in2="effect1_dropShadow" result="shape"/>
</filter>
<filter id="filter24_d" x="282" y="225" width="67" height="67" filterUnits="userSpaceOnUse" color-interpolation-filters="sRGB">
<feFlood flood-opacity="0" result="BackgroundImageFix"/>
<feColorMatrix in="SourceAlpha" type="matrix" values="0 0 0 0 0 0 0 0 0 0 0 0 0 0 0 0 0 0 127 0"/>
<feOffset dx="5" dy="5"/>
<feGaussianBlur stdDeviation="10"/>
<feColorMatrix type="matrix" values="0 0 0 0 0.74902 0 0 0 0 0.878431 0 0 0 0 0.988235 0 0 0 1 0"/>
<feBlend mode="normal" in2="BackgroundImageFix" result="effect1_dropShadow"/>
<feBlend mode="normal" in="SourceGraphic" in2="effect1_dropShadow" result="shape"/>
</filter>
<filter id="filter25_d" x="470" y="312" width="93" height="93" filterUnits="userSpaceOnUse" color-interpolation-filters="sRGB">
<feFlood flood-opacity="0" result="BackgroundImageFix"/>
<feColorMatrix in="SourceAlpha" type="matrix" values="0 0 0 0 0 0 0 0 0 0 0 0 0 0 0 0 0 0 127 0"/>
<feOffset dx="5" dy="5"/>
<feGaussianBlur stdDeviation="10"/>
<feColorMatrix type="matrix" values="0 0 0 0 0.74902 0 0 0 0 0.878431 0 0 0 0 0.988235 0 0 0 1 0"/>
<feBlend mode="normal" in2="BackgroundImageFix" result="effect1_dropShadow"/>
<feBlend mode="normal" in="SourceGraphic" in2="effect1_dropShadow" result="shape"/>
</filter>
<filter id="filter26_d" x="517" y="456" width="100" height="100" filterUnits="userSpaceOnUse" color-interpolation-filters="sRGB">
<feFlood flood-opacity="0" result="BackgroundImageFix"/>
<feColorMatrix in="SourceAlpha" type="matrix" values="0 0 0 0 0 0 0 0 0 0 0 0 0 0 0 0 0 0 127 0"/>
<feOffset dx="5" dy="5"/>
<feGaussianBlur stdDeviation="10"/>
<feColorMatrix type="matrix" values="0 0 0 0 0.74902 0 0 0 0 0.878431 0 0 0 0 0.988235 0 0 0 1 0"/>
<feBlend mode="normal" in2="BackgroundImageFix" result="effect1_dropShadow"/>
<feBlend mode="normal" in="SourceGraphic" in2="effect1_dropShadow" result="shape"/>
</filter>
<filter id="filter27_d" x="1144" y="284" width="93" height="93" filterUnits="userSpaceOnUse" color-interpolation-filters="sRGB">
<feFlood flood-opacity="0" result="BackgroundImageFix"/>
<feColorMatrix in="SourceAlpha" type="matrix" values="0 0 0 0 0 0 0 0 0 0 0 0 0 0 0 0 0 0 127 0"/>
<feOffset dx="5" dy="5"/>
<feGaussianBlur stdDeviation="10"/>
<feColorMatrix type="matrix" values="0 0 0 0 0.74902 0 0 0 0 0.878431 0 0 0 0 0.988235 0 0 0 1 0"/>
<feBlend mode="normal" in2="BackgroundImageFix" result="effect1_dropShadow"/>
<feBlend mode="normal" in="SourceGraphic" in2="effect1_dropShadow" result="shape"/>
</filter>
<filter id="filter28_d" x="1269" y="382" width="130" height="130" filterUnits="userSpaceOnUse" color-interpolation-filters="sRGB">
<feFlood flood-opacity="0" result="BackgroundImageFix"/>
<feColorMatrix in="SourceAlpha" type="matrix" values="0 0 0 0 0 0 0 0 0 0 0 0 0 0 0 0 0 0 127 0"/>
<feOffset dx="5" dy="5"/>
<feGaussianBlur stdDeviation="10"/>
<feColorMatrix type="matrix" values="0 0 0 0 0.603922 0 0 0 0 0.909804 0 0 0 0 0.94902 0 0 0 1 0"/>
<feBlend mode="normal" in2="BackgroundImageFix" result="effect1_dropShadow"/>
<feBlend mode="normal" in="SourceGraphic" in2="effect1_dropShadow" result="shape"/>
</filter>
<filter id="filter29_d" x="-100" y="222" width="160" height="160" filterUnits="userSpaceOnUse" color-interpolation-filters="sRGB">
<feFlood flood-opacity="0" result="BackgroundImageFix"/>
<feColorMatrix in="SourceAlpha" type="matrix" values="0 0 0 0 0 0 0 0 0 0 0 0 0 0 0 0 0 0 127 0"/>
<feOffset dx="5" dy="5"/>
<feGaussianBlur stdDeviation="10"/>
<feColorMatrix type="matrix" values="0 0 0 0 0.603922 0 0 0 0 0.909804 0 0 0 0 0.94902 0 0 0 1 0"/>
<feBlend mode="normal" in2="BackgroundImageFix" result="effect1_dropShadow"/>
<feBlend mode="normal" in="SourceGraphic" in2="effect1_dropShadow" result="shape"/>
</filter>
<filter id="filter30_d" x="1294" y="-36" width="178" height="181" filterUnits="userSpaceOnUse" color-interpolation-filters="sRGB">
<feFlood flood-opacity="0" result="BackgroundImageFix"/>
<feColorMatrix in="SourceAlpha" type="matrix" values="0 0 0 0 0 0 0 0 0 0 0 0 0 0 0 0 0 0 127 0"/>
<feOffset dx="5" dy="5"/>
<feGaussianBlur stdDeviation="10"/>
<feColorMatrix type="matrix" values="0 0 0 0 0.603922 0 0 0 0 0.909804 0 0 0 0 0.94902 0 0 0 1 0"/>
<feBlend mode="normal" in2="BackgroundImageFix" result="effect1_dropShadow"/>
<feBlend mode="normal" in="SourceGraphic" in2="effect1_dropShadow" result="shape"/>
</filter>
<filter id="filter31_d" x="1185" y="5" width="60" height="60" filterUnits="userSpaceOnUse" color-interpolation-filters="sRGB">
<feFlood flood-opacity="0" result="BackgroundImageFix"/>
<feColorMatrix in="SourceAlpha" type="matrix" values="0 0 0 0 0 0 0 0 0 0 0 0 0 0 0 0 0 0 127 0"/>
<feOffset dx="5" dy="5"/>
<feGaussianBlur stdDeviation="10"/>
<feColorMatrix type="matrix" values="0 0 0 0 0.603922 0 0 0 0 0.909804 0 0 0 0 0.94902 0 0 0 1 0"/>
<feBlend mode="normal" in2="BackgroundImageFix" result="effect1_dropShadow"/>
<feBlend mode="normal" in="SourceGraphic" in2="effect1_dropShadow" result="shape"/>
</filter>
<filter id="filter32_d" x="1351" y="572" width="93" height="93" filterUnits="userSpaceOnUse" color-interpolation-filters="sRGB">
<feFlood flood-opacity="0" result="BackgroundImageFix"/>
<feColorMatrix in="SourceAlpha" type="matrix" values="0 0 0 0 0 0 0 0 0 0 0 0 0 0 0 0 0 0 127 0"/>
<feOffset dx="5" dy="5"/>
<feGaussianBlur stdDeviation="10"/>
<feColorMatrix type="matrix" values="0 0 0 0 0.74902 0 0 0 0 0.878431 0 0 0 0 0.988235 0 0 0 1 0"/>
<feBlend mode="normal" in2="BackgroundImageFix" result="effect1_dropShadow"/>
<feBlend mode="normal" in="SourceGraphic" in2="effect1_dropShadow" result="shape"/>
</filter>
<filter id="filter33_d" x="-76" y="547" width="410" height="410" filterUnits="userSpaceOnUse" color-interpolation-filters="sRGB">
<feFlood flood-opacity="0" result="BackgroundImageFix"/>
<feColorMatrix in="SourceAlpha" type="matrix" values="0 0 0 0 0 0 0 0 0 0 0 0 0 0 0 0 0 0 127 0"/>
<feOffset dx="5" dy="5"/>
<feGaussianBlur stdDeviation="15"/>
<feColorMatrix type="matrix" values="0 0 0 0 0.748854 0 0 0 0 0.879025 0 0 0 0 0.9875 0 0 0 1 0"/>
<feBlend mode="normal" in2="BackgroundImageFix" result="effect1_dropShadow"/>
<feBlend mode="normal" in="SourceGraphic" in2="effect1_dropShadow" result="shape"/>
</filter>
<linearGradient id="paint0_linear" x1="1167.94" y1="159.062" x2="1081.66" y2="211.437" gradientUnits="userSpaceOnUse">
<stop stop-color="#E6F2FC"/>
<stop offset="0.484566" stop-color="#E6F2FC"/>
<stop offset="1" stop-color="#CFE5F7"/>
</linearGradient>
<linearGradient id="paint1_linear" x1="1409.5" y1="153.313" x2="1243.78" y2="259.165" gradientUnits="userSpaceOnUse">
<stop stop-color="#E6F2FC"/>
<stop offset="0.484566" stop-color="#E6F2FC"/>
<stop offset="1" stop-color="#CFE5F7"/>
</linearGradient>
<linearGradient id="paint2_linear" x1="435.626" y1="258.312" x2="376.324" y2="292.242" gradientUnits="userSpaceOnUse">
<stop stop-color="#E6F2FC"/>
<stop offset="0.484566" stop-color="#E6F2FC"/>
<stop offset="1" stop-color="#CFE5F7"/>
</linearGradient>
<linearGradient id="paint3_linear" x1="196.522" y1="392.625" x2="145.387" y2="419.818" gradientUnits="userSpaceOnUse">
<stop stop-color="#E6F2FC"/>
<stop offset="0.484566" stop-color="#E6F2FC"/>
<stop offset="1" stop-color="#CFE5F7"/>
</linearGradient>
<clipPath id="clip0">
<rect width="1440" height="900" fill="white"/>
</clipPath>
</defs>
</svg>
